<?xml version="1.0" encoding="UTF-8"?>
<svg xmlns="http://www.w3.org/2000/svg" width="57pt" height="63pt" viewBox="0 0 57 63" version="1.1">
<g id="surface1">
<path style="fill:none;stroke-width:60.5502;stroke-linecap:round;stroke-linejoin:round;stroke:rgb(24.313725%,23.921569%,23.137255%);stroke-opacity:1;stroke-miterlimit:4;" d="M 1115.131979 617.113839 C 1044.836026 524.173627 984.143345 675.055646 905.012381 631.113202 " transform="matrix(0.0101691,0,0,0.0100451,0,0.000248394)"/>
<path style="fill:none;stroke-width:60.5502;stroke-linecap:round;stroke-linejoin:round;stroke:rgb(24.313725%,23.921569%,23.137255%);stroke-opacity:1;stroke-miterlimit:4;" d="M 936.126983 1018.040029 C 807.827265 881.935115 813.97336 1098.147493 614.993558 998.985341 " transform="matrix(0.0101691,0,0,0.0100451,0,0.000248394)"/>
<path style="fill:none;stroke-width:60.5502;stroke-linecap:round;stroke-linejoin:round;stroke:rgb(24.313725%,23.921569%,23.137255%);stroke-opacity:1;stroke-miterlimit:4;" d="M 906.933035 680.110971 C 840.862522 792.883614 633.04771 745.052459 563.904149 1035.928103 L 614.993558 998.985341 " transform="matrix(0.0101691,0,0,0.0100451,0,0.000248394)"/>
<path style="fill:none;stroke-width:60.5502;stroke-linecap:round;stroke-linejoin:round;stroke:rgb(24.313725%,23.921569%,23.137255%);stroke-opacity:1;stroke-miterlimit:4;" d="M 712.178673 1058.093761 C 611.920511 1247.862898 276.190111 1154.922685 182.078043 1649.177959 L 260.824875 1588.125183 " transform="matrix(0.0101691,0,0,0.0100451,0,0.000248394)"/>
<path style="fill:none;stroke-width:60.5502;stroke-linecap:round;stroke-linejoin:round;stroke:rgb(24.313725%,23.921569%,23.137255%);stroke-opacity:1;stroke-miterlimit:4;" d="M 260.824875 1588.125183 C 482.852531 1607.179871 548.923044 1691.953789 765.188736 1599.013576 " transform="matrix(0.0101691,0,0,0.0100451,0,0.000248394)"/>
<path style="fill:none;stroke-width:60.5502;stroke-linecap:round;stroke-linejoin:round;stroke:rgb(24.313725%,23.921569%,23.137255%);stroke-opacity:1;stroke-miterlimit:4;" d="M 681.832333 2426.920325 C 565.056542 2463.085345 384.899154 2461.140989 29.96221 2318.814136 C 185.919352 2241.817642 225.868964 1749.895595 765.188736 1599.013576 " transform="matrix(0.0101691,0,0,0.0100451,0,0.000248394)"/>
<path style="fill:none;stroke-width:60.5502;stroke-linecap:round;stroke-linejoin:round;stroke:rgb(24.313725%,23.921569%,23.137255%);stroke-opacity:1;stroke-miterlimit:4;" d="M 681.832333 2426.920325 C 540.088034 2414.865318 323.822342 2743.072597 323.822342 2888.121548 C 323.822342 3058.835997 -19.974806 2937.897059 304.999928 3114.055705 C 419.855065 3175.886223 623.060306 3177.052837 714.86759 3065.057936 C 727.92804 3049.89196 739.836097 3049.89196 759.042642 3046.003248 " transform="matrix(0.0101691,0,0,0.0100451,0,0.000248394)"/>
<path style="fill:none;stroke-width:60.5502;stroke-linecap:round;stroke-linejoin:round;stroke:rgb(24.313725%,23.921569%,23.137255%);stroke-opacity:1;stroke-miterlimit:4;" d="M 714.86759 3065.057936 C 591.945704 3110.944736 553.148484 3408.042319 444.055311 3453.151377 C 369.918049 3483.094458 399.111997 3476.872519 316.139724 3486.98317 C 316.907986 3495.149464 505.132123 3534.814325 542.008688 3534.814325 C 661.857526 3534.814325 754.04894 3518.092864 828.954464 3415.042001 C 837.021213 3404.93135 828.186203 3399.876025 835.100559 3395.987313 " transform="matrix(0.0101691,0,0,0.0100451,0,0.000248394)"/>
<path style="fill:none;stroke-width:60.5502;stroke-linecap:round;stroke-linejoin:round;stroke:rgb(24.313725%,23.921569%,23.137255%);stroke-opacity:1;stroke-miterlimit:4;" d="M 845.856224 3399.098282 C 752.128286 3528.981257 711.026281 3712.139584 716.019982 3871.187898 C 719.093029 3990.18248 694.124521 4127.065137 596.171144 4197.06195 C 580.037647 4209.116956 790.157244 4277.947156 868.904077 4277.947156 C 943.809601 4277.947156 1037.921669 4291.946518 1105.912837 4255.003756 C 1105.912837 4255.003756 1135.106785 4244.893105 1135.106785 4244.893105 " transform="matrix(0.0101691,0,0,0.0100451,0,0.000248394)"/>
<path style="fill:none;stroke-width:60.5502;stroke-linecap:round;stroke-linejoin:round;stroke:rgb(24.313725%,23.921569%,23.137255%);stroke-opacity:1;stroke-miterlimit:4;" d="M 1178.897707 3185.996874 C 1218.079058 3322.87953 1400.925362 3415.819743 1526.920295 3404.93135 " transform="matrix(0.0101691,0,0,0.0100451,0,0.000248394)"/>
<path style="fill:none;stroke-width:60.5502;stroke-linecap:round;stroke-linejoin:round;stroke:rgb(24.313725%,23.921569%,23.137255%);stroke-opacity:1;stroke-miterlimit:4;" d="M 1304.892639 3555.035627 C 1460.849781 3679.085534 1516.932891 3747.915733 1715.912693 3747.915733 " transform="matrix(0.0101691,0,0,0.0100451,0,0.000248394)"/>
<path style="fill:none;stroke-width:60.5502;stroke-linecap:round;stroke-linejoin:round;stroke:rgb(24.313725%,23.921569%,23.137255%);stroke-opacity:1;stroke-miterlimit:4;" d="M 1654.835882 4575.044739 C 1466.995876 4620.931539 1657.908929 4813.811646 1538.828352 4904.02976 " transform="matrix(0.0101691,0,0,0.0100451,0,0.000248394)"/>
<path style="fill:none;stroke-width:60.5502;stroke-linecap:round;stroke-linejoin:round;stroke:rgb(24.313725%,23.921569%,23.137255%);stroke-opacity:1;stroke-miterlimit:4;" d="M 1178.129445 1275.861623 C 729.848694 1826.114347 663.009919 2459.974375 757.890249 3044.836635 M 1157.002246 4234.004712 C 1317.95309 4561.045377 1476.983279 4804.089866 1538.828352 4904.02976 " transform="matrix(0.0101691,0,0,0.0100451,0,0.000248394)"/>
<path style="fill:none;stroke-width:60.5502;stroke-linecap:round;stroke-linejoin:round;stroke:rgb(24.313725%,23.921569%,23.137255%);stroke-opacity:1;stroke-miterlimit:4;" d="M 1611.04496 4783.090822 C 1689.023531 4888.086042 1563.028598 5059.967105 1803.878668 5238.847849 L 1788.897563 5177.017331 " transform="matrix(0.0101691,0,0,0.0100451,0,0.000248394)"/>
<path style="fill:none;stroke-width:60.5502;stroke-linecap:round;stroke-linejoin:round;stroke:rgb(24.313725%,23.921569%,23.137255%);stroke-opacity:1;stroke-miterlimit:4;" d="M 1579.930358 647.834663 C 1490.811991 589.892857 1546.126839 610.891901 1332.165933 533.895406 C 898.098025 377.958062 1271.857383 570.060426 1266.095419 853.93639 " transform="matrix(0.0101691,0,0,0.0100451,0,0.000248394)"/>
<path style="fill:none;stroke-width:60.5502;stroke-linecap:round;stroke-linejoin:round;stroke:rgb(24.313725%,23.921569%,23.137255%);stroke-opacity:1;stroke-miterlimit:4;" d="M 4485.880554 617.113839 C 4556.176507 524.173627 4616.869188 675.055646 4696.000151 631.113202 " transform="matrix(0.0101691,0,0,0.0100451,0,0.000248394)"/>
<path style="fill:none;stroke-width:60.5502;stroke-linecap:round;stroke-linejoin:round;stroke:rgb(24.313725%,23.921569%,23.137255%);stroke-opacity:1;stroke-miterlimit:4;" d="M 4664.117287 1018.040029 C 4792.032874 881.935115 4787.039173 1098.147493 4986.018975 998.985341 " transform="matrix(0.0101691,0,0,0.0100451,0,0.000248394)"/>
<path style="fill:none;stroke-width:60.5502;stroke-linecap:round;stroke-linejoin:round;stroke:rgb(24.313725%,23.921569%,23.137255%);stroke-opacity:1;stroke-miterlimit:4;" d="M 4694.079497 680.110971 C 4760.15001 792.883614 4967.964823 745.052459 5037.108383 1035.928103 L 4986.018975 998.985341 " transform="matrix(0.0101691,0,0,0.0100451,0,0.000248394)"/>
<path style="fill:none;stroke-width:60.5502;stroke-linecap:round;stroke-linejoin:round;stroke:rgb(24.313725%,23.921569%,23.137255%);stroke-opacity:1;stroke-miterlimit:4;" d="M 4888.833859 1058.093761 C 4989.092022 1247.862898 5324.822421 1154.922685 5418.93449 1649.177959 L 5340.187657 1588.125183 " transform="matrix(0.0101691,0,0,0.0100451,0,0.000248394)"/>
<path style="fill:none;stroke-width:60.5502;stroke-linecap:round;stroke-linejoin:round;stroke:rgb(24.313725%,23.921569%,23.137255%);stroke-opacity:1;stroke-miterlimit:4;" d="M 5340.187657 1588.125183 C 5118.160001 1607.179871 5052.089488 1691.953789 4835.823796 1599.013576 " transform="matrix(0.0101691,0,0,0.0100451,0,0.000248394)"/>
<path style="fill:none;stroke-width:60.5502;stroke-linecap:round;stroke-linejoin:round;stroke:rgb(24.313725%,23.921569%,23.137255%);stroke-opacity:1;stroke-miterlimit:4;" d="M 4919.1802 2426.920325 C 5035.955991 2463.085345 5214.960986 2461.140989 5571.050323 2318.814136 C 5415.093181 2241.817642 5375.143568 1749.895595 4835.823796 1599.013576 " transform="matrix(0.0101691,0,0,0.0100451,0,0.000248394)"/>
<path style="fill:none;stroke-width:60.5502;stroke-linecap:round;stroke-linejoin:round;stroke:rgb(24.313725%,23.921569%,23.137255%);stroke-opacity:1;stroke-miterlimit:4;" d="M 4919.1802 2426.920325 C 5060.924499 2414.865318 5276.037798 2743.072597 5276.037798 2888.121548 C 5276.037798 3058.835997 5620.987339 2937.897059 5296.012604 3114.055705 C 5181.157468 3175.886223 4977.952226 3177.052837 4886.144943 3065.057936 C 4873.084493 3049.89196 4861.176435 3049.89196 4841.96989 3046.003248 " transform="matrix(0.0101691,0,0,0.0100451,0,0.000248394)"/>
<path style="fill:none;stroke-width:60.5502;stroke-linecap:round;stroke-linejoin:round;stroke:rgb(24.313725%,23.921569%,23.137255%);stroke-opacity:1;stroke-miterlimit:4;" d="M 4860.024042 3065.057936 C 4982.945928 3110.944736 5022.127279 3408.042319 5131.988714 3453.151377 C 5204.973583 3483.094458 5176.163766 3476.872519 5259.136039 3486.98317 C 5257.983646 3495.149464 5070.14364 3534.814325 5032.882944 3534.814325 C 4913.034105 3534.814325 4820.842691 3518.092864 4745.937167 3415.042001 C 4739.022811 3404.93135 4747.857822 3399.876025 4740.943466 3395.987313 " transform="matrix(0.0101691,0,0,0.0100451,0,0.000248394)"/>
<path style="fill:none;stroke-width:60.5502;stroke-linecap:round;stroke-linejoin:round;stroke:rgb(24.313725%,23.921569%,23.137255%);stroke-opacity:1;stroke-miterlimit:4;" d="M 4729.035408 3399.098282 C 4823.147477 3528.981257 4863.865351 3712.139584 4860.024042 3871.187898 C 4856.950995 3990.18248 4881.919503 4127.065137 4979.104619 4197.06195 C 4996.006378 4209.116956 4785.118518 4277.947156 4707.139947 4277.947156 C 4631.850293 4277.947156 4536.969962 4291.946518 4470.131187 4255.003756 C 4470.131187 4255.003756 4440.168978 4244.893105 4440.168978 4244.893105 " transform="matrix(0.0101691,0,0,0.0100451,0,0.000248394)"/>
<path style="fill:none;stroke-width:60.5502;stroke-linecap:round;stroke-linejoin:round;stroke:rgb(24.313725%,23.921569%,23.137255%);stroke-opacity:1;stroke-miterlimit:4;" d="M 3920.824012 4575.044739 C 4109.048149 4620.931539 3918.135096 4813.811646 4036.831541 4904.02976 " transform="matrix(0.0101691,0,0,0.0100451,0,0.000248394)"/>
<path style="fill:none;stroke-width:60.5502;stroke-linecap:round;stroke-linejoin:round;stroke:rgb(24.313725%,23.921569%,23.137255%);stroke-opacity:1;stroke-miterlimit:4;" d="M 4470.131187 1371.135063 C 4851.957294 1898.055516 4906.888011 2493.806168 4817.001382 3044.836635 M 4417.889386 4234.004712 C 4256.938542 4561.045377 4099.060746 4804.089866 4036.831541 4904.02976 " transform="matrix(0.0101691,0,0,0.0100451,0,0.000248394)"/>
<path style="fill:none;stroke-width:60.5502;stroke-linecap:round;stroke-linejoin:round;stroke:rgb(24.313725%,23.921569%,23.137255%);stroke-opacity:1;stroke-miterlimit:4;" d="M 3963.846672 4783.090822 C 3885.868101 4888.086042 4011.863033 5059.967105 3772.165357 5238.847849 L 3785.994069 5177.017331 " transform="matrix(0.0101691,0,0,0.0100451,0,0.000248394)"/>
<path style="fill:none;stroke-width:60.5502;stroke-linecap:round;stroke-linejoin:round;stroke:rgb(24.313725%,23.921569%,23.137255%);stroke-opacity:1;stroke-miterlimit:4;" d="M 4034.142625 661.056283 C 4122.108599 603.114477 4067.946143 624.113521 4281.90705 547.117027 C 4677.946 404.012431 4400.987627 552.172352 4354.123658 794.82797 " transform="matrix(0.0101691,0,0,0.0100451,0,0.000248394)"/>
<path style="fill:none;stroke-width:60.5502;stroke-linecap:round;stroke-linejoin:round;stroke:rgb(24.313725%,23.921569%,23.137255%);stroke-opacity:1;stroke-miterlimit:4;" d="M 2774.961562 3005.171774 C 2665.868389 2962.007073 2516.057341 2914.953659 2436.158115 2827.068772 C 2325.912549 2659.076421 2595.188305 2382.977881 2456.132922 2069.936579 L 2431.164414 2015.105742 M 2431.164414 2015.105742 C 2448.066173 1996.051054 2377.001958 1903.888584 2363.173246 1879.000828 C 2159.968004 1494.018357 1697.858541 1768.172541 1829.999568 2045.048823 C 1904.905092 2202.152781 2290.956638 2171.043086 2431.164414 2015.105742 Z M 3421.837984 3618.810501 C 3432.977779 3770.081391 3449.111277 3856.021922 3366.907266 3987.849253 C 3323.116344 4057.846066 3300.068491 4059.01268 3215.943826 4085.067049 C 2960.112652 4165.174513 2582.127854 4183.840329 2335.131691 4069.12333 C 2178.022156 3985.127155 2207.984366 3763.859452 2216.051114 3616.088402 M 3162.933763 2015.105742 C 3350.005507 2115.823378 3625.043225 2311.036712 3779.847975 2048.937535 C 3911.989001 1826.114347 3394.948821 1445.020588 3184.060962 1938.88699 C 3159.860715 1994.884441 3169.079857 1994.884441 3131.050899 2076.158518 C 2972.020709 2454.141308 3202.883375 2489.917456 3177.914867 2759.016315 C 3171.000511 2837.957165 3101.856951 2871.011216 3033.097521 2904.843009 C 2952.045903 2944.896741 2861.006882 2976.006435 2774.961562 3005.171774 C 2783.028311 3224.10625 2799.93007 3422.041682 2803.003117 3644.86487 M 1140.100487 2487.973101 C 1400.925362 2596.079289 1579.930358 2830.179742 1767.002102 3030.837272 C 2007.852171 3287.103382 1859.961778 3243.93868 1951.000799 3483.8722 C 2018.991967 3663.919558 2216.819376 3607.144365 2385.068707 3607.922107 C 2549.092598 3609.866463 2617.083765 3625.032439 2771.888515 3644.087127 C 2834.117719 3651.864551 2968.947662 3612.977433 3063.827992 3609.088721 C 3180.987914 3604.811138 3517.102445 3639.809544 3590.087314 3576.03467 C 3650.011733 3523.14819 3704.942451 3247.04965 3772.165357 3124.944098 C 3882.026792 2923.119954 4170.893222 2563.025239 4397.146318 2503.139077 L 4453.99769 2487.973101 " transform="matrix(0.0101691,0,0,0.0100451,0,0.000248394)"/>
<path style="fill:none;stroke-width:60.5502;stroke-linecap:round;stroke-linejoin:round;stroke:rgb(24.313725%,23.921569%,23.137255%);stroke-opacity:1;stroke-miterlimit:4;" d="M 2812.99052 306.016893 C 3633.109974 1268.861942 4503.934706 1691.176047 4503.934706 2655.965452 C 4503.934706 4263.947793 2945.131547 4867.086998 2812.99052 5294.845299 C 2645.893582 4914.140411 1120.893942 4277.947156 1120.893942 2655.965452 C 1120.893942 1691.176047 2020.912621 1233.863536 2812.99052 306.016893 Z M 2812.99052 306.016893 " transform="matrix(0.0101691,0,0,0.0100451,0,0.000248394)"/>
<path style="fill:none;stroke-width:60.5502;stroke-linecap:round;stroke-linejoin:round;stroke:rgb(24.313725%,23.921569%,23.137255%);stroke-opacity:1;stroke-miterlimit:4;" d="M 4437.864192 3185.996874 C 4399.066972 3322.87953 4215.836537 3415.819743 4089.841604 3404.93135 " transform="matrix(0.0101691,0,0,0.0100451,0,0.000248394)"/>
<path style="fill:none;stroke-width:60.5502;stroke-linecap:round;stroke-linejoin:round;stroke:rgb(24.313725%,23.921569%,23.137255%);stroke-opacity:1;stroke-miterlimit:4;" d="M 4311.86926 3565.92402 C 4155.912118 3689.973927 4099.829007 3758.026384 3900.849206 3758.026384 " transform="matrix(0.0101691,0,0,0.0100451,0,0.000248394)"/>
<path style="fill:none;stroke-width:60.5502;stroke-linecap:round;stroke-linejoin:round;stroke:rgb(24.313725%,23.921569%,23.137255%);stroke-opacity:1;stroke-miterlimit:4;" d="M 2812.99052 306.016893 L 2812.99052 1212.864492 " transform="matrix(0.0101691,0,0,0.0100451,0,0.000248394)"/>
<path style="fill:none;stroke-width:60.5502;stroke-linecap:round;stroke-linejoin:round;stroke:rgb(24.313725%,23.921569%,23.137255%);stroke-opacity:1;stroke-miterlimit:4;" d="M 2426.938974 720.942445 L 2426.938974 1028.15068 " transform="matrix(0.0101691,0,0,0.0100451,0,0.000248394)"/>
<path style="fill:none;stroke-width:60.5502;stroke-linecap:round;stroke-linejoin:round;stroke:rgb(24.313725%,23.921569%,23.137255%);stroke-opacity:1;stroke-miterlimit:4;" d="M 3189.054663 704.998727 L 3189.054663 1011.81809 " transform="matrix(0.0101691,0,0,0.0100451,0,0.000248394)"/>
<path style="fill:none;stroke-width:60.5502;stroke-linecap:round;stroke-linejoin:round;stroke:rgb(24.313725%,23.921569%,23.137255%);stroke-opacity:1;stroke-miterlimit:4;" d="M 3666.145231 1165.033336 C 4221.982631 801.049909 4273.840301 1327.19262 4044.130028 1539.127414 " transform="matrix(0.0101691,0,0,0.0100451,0,0.000248394)"/>
<path style="fill:none;stroke-width:60.5502;stroke-linecap:round;stroke-linejoin:round;stroke:rgb(24.313725%,23.921569%,23.137255%);stroke-opacity:1;stroke-miterlimit:4;" d="M 3479.841748 993.152273 C 4573.078266 246.130731 4672.952298 1348.191663 4220.061977 1786.838358 " transform="matrix(0.0101691,0,0,0.0100451,0,0.000248394)"/>
<path style="fill:none;stroke-width:60.5502;stroke-linecap:round;stroke-linejoin:round;stroke:rgb(24.313725%,23.921569%,23.137255%);stroke-opacity:1;stroke-miterlimit:4;" d="M 1944.854705 1165.033336 C 1410.144504 815.049272 1359.823357 1320.970681 1581.08275 1525.128052 " transform="matrix(0.0101691,0,0,0.0100451,0,0.000248394)"/>
<path style="fill:none;stroke-width:60.5502;stroke-linecap:round;stroke-linejoin:round;stroke:rgb(24.313725%,23.921569%,23.137255%);stroke-opacity:1;stroke-miterlimit:4;" d="M 2171.1078 979.152911 C 1077.871282 230.964755 977.99725 1334.192301 1430.887572 1772.061253 " transform="matrix(0.0101691,0,0,0.0100451,0,0.000248394)"/>
<path style="fill:none;stroke-width:60.5502;stroke-linecap:round;stroke-linejoin:round;stroke:rgb(24.313725%,23.921569%,23.137255%);stroke-opacity:1;stroke-miterlimit:4;" d="M 1934.09904 4888.863784 C 1758.167091 4953.027529 1959.067548 5033.912735 1788.897563 5177.017331 " transform="matrix(0.0101691,0,0,0.0100451,0,0.000248394)"/>
<path style="fill:none;stroke-width:60.5502;stroke-linecap:round;stroke-linejoin:round;stroke:rgb(24.313725%,23.921569%,23.137255%);stroke-opacity:1;stroke-miterlimit:4;" d="M 1848.821982 2078.102874 C 1364.048797 1996.051054 1856.888731 1648.011345 1549.968148 1485.07432 " transform="matrix(0.0101691,0,0,0.0100451,0,0.000248394)"/>
<path style="fill:none;stroke-width:60.5502;stroke-linecap:round;stroke-linejoin:round;stroke:rgb(24.313725%,23.921569%,23.137255%);stroke-opacity:1;stroke-miterlimit:4;" d="M 2189.930214 1707.897508 C 1851.126767 1585.014214 2239.098968 1429.076869 1911.051186 1151.811716 " transform="matrix(0.0101691,0,0,0.0100451,0,0.000248394)"/>
<path style="fill:none;stroke-width:60.5502;stroke-linecap:round;stroke-linejoin:round;stroke:rgb(24.313725%,23.921569%,23.137255%);stroke-opacity:1;stroke-miterlimit:4;" d="M 3757.952514 2113.10128 C 4243.10983 2031.049461 3749.885765 1683.009752 4057.190479 1520.072726 " transform="matrix(0.0101691,0,0,0.0100451,0,0.000248394)"/>
<path style="fill:none;stroke-width:60.5502;stroke-linecap:round;stroke-linejoin:round;stroke:rgb(24.313725%,23.921569%,23.137255%);stroke-opacity:1;stroke-miterlimit:4;" d="M 3404.167963 1707.119765 C 3742.971409 1583.069858 3356.151601 1427.910256 3683.04699 1151.033974 " transform="matrix(0.0101691,0,0,0.0100451,0,0.000248394)"/>
<path style="fill:none;stroke-width:60.5502;stroke-linecap:round;stroke-linejoin:round;stroke:rgb(24.313725%,23.921569%,23.137255%);stroke-opacity:1;stroke-miterlimit:4;" d="M 2812.99052 306.016893 C 2630.912477 258.185738 1747.027296 540.895088 1626.026065 734.941808 " transform="matrix(0.0101691,0,0,0.0100451,0,0.000248394)"/>
<path style="fill:none;stroke-width:60.5502;stroke-linecap:round;stroke-linejoin:round;stroke:rgb(24.313725%,23.921569%,23.137255%);stroke-opacity:1;stroke-miterlimit:4;" d="M 2812.99052 306.016893 C 2995.068563 258.185738 3878.185483 540.895088 3999.954976 734.941808 " transform="matrix(0.0101691,0,0,0.0100451,0,0.000248394)"/>
<path style="fill:none;stroke-width:60.5502;stroke-linecap:round;stroke-linejoin:round;stroke:rgb(24.313725%,23.921569%,23.137255%);stroke-opacity:1;stroke-miterlimit:4;" d="M 1881.857239 5110.909229 C 2017.071313 5278.901581 1798.116704 5549.944795 2216.051114 5831.876403 L 2189.930214 5735.047478 " transform="matrix(0.0101691,0,0,0.0100451,0,0.000248394)"/>
<path style="fill:none;stroke-width:60.5502;stroke-linecap:round;stroke-linejoin:round;stroke:rgb(24.313725%,23.921569%,23.137255%);stroke-opacity:1;stroke-miterlimit:4;" d="M 2189.930214 5735.047478 C 2295.182078 5539.056402 2400.049812 5511.057677 2400.049812 5276.179482 " transform="matrix(0.0101691,0,0,0.0100451,0,0.000248394)"/>
<path style="fill:none;stroke-width:60.5502;stroke-linecap:round;stroke-linejoin:round;stroke:rgb(24.313725%,23.921569%,23.137255%);stroke-opacity:1;stroke-miterlimit:4;" d="M 3691.882 5110.909229 C 3557.052057 5278.901581 3774.854273 5549.944795 3358.072256 5831.876403 L 3383.809025 5735.047478 " transform="matrix(0.0101691,0,0,0.0100451,0,0.000248394)"/>
<path style="fill:none;stroke-width:60.5502;stroke-linecap:round;stroke-linejoin:round;stroke:rgb(24.313725%,23.921569%,23.137255%);stroke-opacity:1;stroke-miterlimit:4;" d="M 3383.809025 5735.047478 C 3278.17303 5539.056402 3174.073558 5511.057677 3174.073558 5276.179482 " transform="matrix(0.0101691,0,0,0.0100451,0,0.000248394)"/>
<path style="fill:none;stroke-width:60.5502;stroke-linecap:round;stroke-linejoin:round;stroke:rgb(24.313725%,23.921569%,23.137255%);stroke-opacity:1;stroke-miterlimit:4;" d="M 3174.073558 5276.179482 C 2975.093756 5556.944476 3389.95512 5617.997252 2771.120253 6235.913562 C 2761.901112 6062.865885 2325.912549 5831.09866 2400.049812 5276.179482 " transform="matrix(0.0101691,0,0,0.0100451,0,0.000248394)"/>
<path style="fill:none;stroke-width:60.5502;stroke-linecap:round;stroke-linejoin:round;stroke:rgb(24.313725%,23.921569%,23.137255%);stroke-opacity:1;stroke-miterlimit:4;" d="M 2698.135384 316.905286 C 2650.887284 159.023586 2156.894957 395.068394 1813.097809 82.027092 C 1795.043657 66.083373 1755.862306 43.139973 1733.966845 29.918353 C 1647.153264 174.967304 1501.951787 479.842312 1571.863609 621.002551 C 1587.997106 654.834344 1566.101646 638.112883 1599.905164 668.833707 " transform="matrix(0.0101691,0,0,0.0100451,0,0.000248394)"/>
<path style="fill:none;stroke-width:60.5502;stroke-linecap:round;stroke-linejoin:round;stroke:rgb(24.313725%,23.921569%,23.137255%);stroke-opacity:1;stroke-miterlimit:4;" d="M 2905.950196 316.905286 C 2952.814165 159.023586 3447.190622 395.068394 3790.987771 82.027092 C 3809.041922 66.083373 3847.839143 43.139973 3870.118734 29.918353 C 3956.932316 174.967304 4102.133793 479.842312 4031.83784 621.002551 C 4016.088473 654.834344 4037.983934 638.112883 4004.180415 668.833707 " transform="matrix(0.0101691,0,0,0.0100451,0,0.000248394)"/>
</g>
</svg>
